<svg width="24" height="24" viewBox="0 0 24 24" fill="none" xmlns="http://www.w3.org/2000/svg">
<path d="M20.992 9.98012C20.9951 8.7994 20.7657 7.62963 20.3168 6.53759C19.8678 5.44554 19.2082 4.45261 18.3756 3.61549C16.6939 1.92485 14.4095 0.971485 12.025 0.96512C9.64043 0.958755 7.351 1.89991 5.66036 3.58155C3.96972 5.26319 3.01635 7.54756 3.00999 9.93212C2.98887 12.7023 3.79305 15.4161 5.32002 17.7276C6.847 20.0391 9.02763 21.8436 11.584 22.9111C11.7147 22.9703 11.8565 23.0006 12 23.0001C12.1445 23.0004 12.2873 22.9697 12.419 22.9101C14.9676 21.8458 17.1428 20.0489 18.669 17.747C20.1952 15.4451 21.0037 12.742 20.992 9.98012ZM12 20.9001C9.89193 19.972 8.10429 18.443 6.86066 16.5043C5.61702 14.5655 4.9726 12.3032 5.00799 10.0001C5.00799 9.08192 5.18884 8.17271 5.54022 7.3244C5.8916 6.47609 6.40663 5.7053 7.0559 5.05603C7.70516 4.40676 8.47596 3.89173 9.32427 3.54035C10.1726 3.18897 11.0818 3.00812 12 3.00812C12.9182 3.00812 13.8274 3.18897 14.6757 3.54035C15.524 3.89173 16.2948 4.40676 16.9441 5.05603C17.5933 5.7053 18.1084 6.47609 18.4598 7.3244C18.8111 8.17271 18.992 9.08192 18.992 10.0001C18.992 10.0211 18.992 10.0451 18.992 10.0651C19.0162 12.3575 18.3665 14.6066 17.1234 16.5328C15.8804 18.4591 14.0988 19.9777 12 20.9001ZM14 10.0001C14 10.3957 13.8827 10.7824 13.6629 11.1113C13.4432 11.4402 13.1308 11.6965 12.7654 11.8479C12.3999 11.9993 11.9978 12.0389 11.6098 11.9617C11.2218 11.8845 10.8655 11.694 10.5858 11.4143C10.3061 11.1346 10.1156 10.7783 10.0384 10.3903C9.96125 10.0023 10.0009 9.60021 10.1522 9.23475C10.3036 8.8693 10.5599 8.55694 10.8888 8.33718C11.2177 8.11742 11.6044 8.00012 12 8.00012C12.5304 8.00012 13.0391 8.21083 13.4142 8.58591C13.7893 8.96098 14 9.46969 14 10.0001Z" fill="black"/>
</svg>
